# xmcd
#
# Track frame offsets:
#       150
#       22029
#       33769
#       47135
#       60174
#       71765
#       86718
#       98107
#       117184
#       129112
#       137664
#       157292
#       172582
#       184573
#       193901
#       205141
#       215945
#       238974
#       251088
#       260428
#       273843
#       289121
#       307750
#       321253
#       335256
#
# Disc length: 4723 seconds
#
# Revision: 1
# Processed by: cddbd v1.5.1PL0 Copyright (c) Steve Scherf et al.
# Submitted via: MusiCat 1.1
#
DISCID=6c127119
DTITLE=Various Artist - The Blues Scene
DYEAR=1999
DGENRE=
TTITLE0=Bluesbreakers - curly
TTITLE1=eddie boyd - key to the highway
TTITLE2=john mayall's bluesbreakers (with peter green) - the supernatural
TTITLE3=otis spann - pretty girls everywhere
TTITLE4=eddie boyd - blue coat man
TTITLE5=champion jack dupree/john mayall/eric clapton - third degree
TTITLE6=john mayall's bluesbreakers (with eric clapton) - steppin' out
TTITLE7=savoy brown - train to nowhere
TTITLE8=curtis jones -roll me over
TTITLE9=zoot money - get on the right track baby
TTITLE10=alexis korner - night time is the right time
TTITLE11=mae mercer - sweet little angel
TTITLE12=graham bond organisation - strut around
TTITLE13=steve angelo/john mayall - long night
TTITLE14=davy graham - goin' down slow
TTITLE15=savoy brown - taste and try (before you buy)
TTITLE16=keef hartley - me and my woman
TTITLE17=eddie boyd - dust my broom
TTITLE18=champion jack dupree/mickey 'guitar' baker - barrelhouse woman
TTITLE19=rod stewart - i'm gonna move to the outskirts of town
TTITLE20=john mayall's bluesbreakers (with peter green) - double trouble
TTITLE21=champion jack dupree - 24 hours
TTITLE22=alexis korner - early in the morning
TTITLE23=savoy brown blues band - let me love you baby
TTITLE24=john mayal's bluesbreakers - I need your love
EXTD=deram\n844 801-2\npart of the Decca originals series\n\n
EXTT0=
EXTT1=
EXTT2=
EXTT3=
EXTT4=
EXTT5=
EXTT6=
EXTT7=
EXTT8=
EXTT9=
EXTT10=
EXTT11=
EXTT12=
EXTT13=
EXTT14=
EXTT15=
EXTT16=
EXTT17=
EXTT18=
EXTT19=
EXTT20=
EXTT21=
EXTT22=
EXTT23=
EXTT24=
PLAYORDER=
